<svg width="422" height="166" viewBox="0 0 422 166" fill="none" xmlns="http://www.w3.org/2000/svg">
<path d="M161.5 69V54.984H128.188V49.896L158.716 1.992H166.972V50.184H177.34V54.984H166.972V69H161.5ZM133.564 50.184H161.5V6.888H161.212L133.564 50.184ZM210.519 70.152C195.415 70.152 187.863 58.6 187.863 35.496C187.863 12.392 195.415 0.839996 210.519 0.839996C225.623 0.839996 233.175 12.392 233.175 35.496C233.175 58.6 225.623 70.152 210.519 70.152ZM210.519 65.16C216.151 65.16 220.311 62.92 222.999 58.44C225.751 53.96 227.127 47.816 227.127 40.008V30.984C227.127 23.176 225.751 17.032 222.999 12.552C220.311 8.072 216.151 5.832 210.519 5.832C204.823 5.832 200.631 8.072 197.943 12.552C195.255 17.032 193.911 23.176 193.911 30.984V40.008C193.911 47.816 195.255 53.96 197.943 58.44C200.631 62.92 204.823 65.16 210.519 65.16ZM276.625 69V54.984H243.313V49.896L273.841 1.992H282.097V50.184H292.465V54.984H282.097V69H276.625ZM248.689 50.184H276.625V6.888H276.337L248.689 50.184Z" fill="#2ECC71"/>
<path d="M0.452 152V107.328H18.244C22.2547 107.328 25.3267 108.48 27.46 110.784C29.636 113.045 30.724 116.16 30.724 120.128C30.724 124.096 29.636 127.232 27.46 129.536C25.3267 131.797 22.2547 132.928 18.244 132.928H5.828V152H0.452ZM5.828 128.192H18.244C20.3773 128.192 22.02 127.637 23.172 126.528C24.3667 125.419 24.964 123.84 24.964 121.792V118.464C24.964 116.416 24.3667 114.837 23.172 113.728C22.02 112.619 20.3773 112.064 18.244 112.064H5.828V128.192ZM62.1275 152C60.2075 152 58.8208 151.488 57.9675 150.464C57.1568 149.44 56.6448 148.16 56.4315 146.624H56.1115C55.3862 148.672 54.1915 150.208 52.5275 151.232C50.8635 152.256 48.8795 152.768 46.5755 152.768C43.0768 152.768 40.3462 151.872 38.3835 150.08C36.4635 148.288 35.5035 145.856 35.5035 142.784C35.5035 139.669 36.6342 137.28 38.8955 135.616C41.1995 133.952 44.7622 133.12 49.5835 133.12H56.1115V129.856C56.1115 127.509 55.4715 125.717 54.1915 124.48C52.9115 123.243 50.9488 122.624 48.3035 122.624C46.2982 122.624 44.6128 123.072 43.2475 123.968C41.9248 124.864 40.8155 126.059 39.9195 127.552L36.8475 124.672C37.7435 122.88 39.1728 121.365 41.1355 120.128C43.0982 118.848 45.5728 118.208 48.5595 118.208C52.5702 118.208 55.6848 119.189 57.9035 121.152C60.1222 123.115 61.2315 125.845 61.2315 129.344V147.52H65.0075V152H62.1275ZM47.4075 148.416C48.6875 148.416 49.8608 148.267 50.9275 147.968C51.9942 147.669 52.9115 147.243 53.6795 146.688C54.4475 146.133 55.0448 145.493 55.4715 144.768C55.8982 144.043 56.1115 143.253 56.1115 142.4V136.96H49.3275C46.3835 136.96 44.2288 137.387 42.8635 138.24C41.5408 139.093 40.8795 140.331 40.8795 141.952V143.296C40.8795 144.917 41.4555 146.176 42.6075 147.072C43.8022 147.968 45.4022 148.416 47.4075 148.416ZM100.155 155.648C100.155 159.061 98.811 161.557 96.123 163.136C93.4777 164.757 89.4883 165.568 84.155 165.568C78.9923 165.568 75.2803 164.864 73.019 163.456C70.7577 162.048 69.627 160.043 69.627 157.44C69.627 155.648 70.0963 154.24 71.035 153.216C71.9737 152.235 73.2537 151.509 74.875 151.04V150.336C72.9123 149.397 71.931 147.861 71.931 145.728C71.931 144.064 72.4643 142.805 73.531 141.952C74.5977 141.056 75.963 140.395 77.627 139.968V139.712C75.6643 138.773 74.1283 137.429 73.019 135.68C71.9523 133.931 71.419 131.904 71.419 129.6C71.419 127.936 71.7177 126.4 72.315 124.992C72.9123 123.584 73.7443 122.389 74.811 121.408C75.9203 120.384 77.2217 119.595 78.715 119.04C80.251 118.485 81.9577 118.208 83.835 118.208C86.1817 118.208 88.2723 118.635 90.107 119.488V118.912C90.107 117.632 90.4057 116.587 91.003 115.776C91.6003 114.923 92.5817 114.496 93.947 114.496H98.875V118.976H92.603V121.088C93.7977 122.112 94.715 123.349 95.355 124.8C96.0377 126.208 96.379 127.808 96.379 129.6C96.379 131.264 96.0803 132.8 95.483 134.208C94.8857 135.616 94.0323 136.832 92.923 137.856C91.8563 138.837 90.555 139.605 89.019 140.16C87.483 140.715 85.7763 140.992 83.899 140.992C82.8323 140.992 81.7657 140.885 80.699 140.672C79.5897 140.971 78.587 141.419 77.691 142.016C76.795 142.571 76.347 143.36 76.347 144.384C76.347 145.365 76.8163 146.027 77.755 146.368C78.6937 146.709 79.9097 146.88 81.403 146.88H88.443C92.539 146.88 95.5043 147.669 97.339 149.248C99.2163 150.784 100.155 152.917 100.155 155.648ZM95.355 156.032C95.355 154.709 94.843 153.643 93.819 152.832C92.8377 152.064 91.067 151.68 88.507 151.68H77.499C75.451 152.619 74.427 154.112 74.427 156.16C74.427 157.611 74.9603 158.848 76.027 159.872C77.1363 160.896 78.9923 161.408 81.595 161.408H86.331C89.1897 161.408 91.4083 160.96 92.987 160.064C94.5657 159.168 95.355 157.824 95.355 156.032ZM83.899 136.896C86.075 136.896 87.803 136.384 89.083 135.36C90.363 134.293 91.003 132.672 91.003 130.496V128.704C91.003 126.528 90.363 124.928 89.083 123.904C87.803 122.837 86.075 122.304 83.899 122.304C81.723 122.304 79.995 122.837 78.715 123.904C77.435 124.928 76.795 126.528 76.795 128.704V130.496C76.795 132.672 77.435 134.293 78.715 135.36C79.995 136.384 81.723 136.896 83.899 136.896ZM118.169 152.768C115.907 152.768 113.859 152.363 112.025 151.552C110.233 150.741 108.675 149.589 107.353 148.096C106.073 146.56 105.07 144.747 104.345 142.656C103.662 140.523 103.321 138.133 103.321 135.488C103.321 132.885 103.662 130.517 104.345 128.384C105.07 126.251 106.073 124.437 107.353 122.944C108.675 121.408 110.233 120.235 112.025 119.424C113.859 118.613 115.907 118.208 118.169 118.208C120.387 118.208 122.371 118.613 124.121 119.424C125.87 120.235 127.363 121.365 128.601 122.816C129.838 124.224 130.777 125.909 131.417 127.872C132.099 129.835 132.441 131.989 132.441 134.336V136.768H108.697V138.304C108.697 139.712 108.91 141.035 109.337 142.272C109.806 143.467 110.446 144.512 111.257 145.408C112.11 146.304 113.134 147.008 114.329 147.52C115.566 148.032 116.953 148.288 118.489 148.288C120.579 148.288 122.393 147.797 123.929 146.816C125.507 145.835 126.723 144.427 127.577 142.592L131.225 145.216C130.158 147.477 128.494 149.312 126.233 150.72C123.971 152.085 121.283 152.768 118.169 152.768ZM118.169 122.496C116.761 122.496 115.481 122.752 114.329 123.264C113.177 123.733 112.174 124.416 111.321 125.312C110.51 126.208 109.87 127.275 109.401 128.512C108.931 129.707 108.697 131.029 108.697 132.48V132.928H126.937V132.224C126.937 129.28 126.126 126.933 124.505 125.184C122.926 123.392 120.814 122.496 118.169 122.496ZM156.003 152V118.976H161.123V124.352H161.379C162.189 122.475 163.32 120.981 164.771 119.872C166.264 118.763 168.248 118.208 170.723 118.208C174.136 118.208 176.824 119.317 178.787 121.536C180.792 123.712 181.795 126.805 181.795 130.816V152H176.675V131.712C176.675 125.781 174.179 122.816 169.187 122.816C168.163 122.816 167.16 122.944 166.179 123.2C165.24 123.456 164.387 123.84 163.619 124.352C162.851 124.864 162.232 125.525 161.763 126.336C161.336 127.104 161.123 128.021 161.123 129.088V152H156.003ZM204.858 152.768C202.639 152.768 200.612 152.363 198.778 151.552C196.943 150.741 195.364 149.589 194.042 148.096C192.762 146.56 191.759 144.747 191.034 142.656C190.308 140.523 189.946 138.133 189.946 135.488C189.946 132.885 190.308 130.517 191.034 128.384C191.759 126.251 192.762 124.437 194.042 122.944C195.364 121.408 196.943 120.235 198.778 119.424C200.612 118.613 202.639 118.208 204.858 118.208C207.076 118.208 209.082 118.613 210.874 119.424C212.708 120.235 214.287 121.408 215.61 122.944C216.932 124.437 217.956 126.251 218.682 128.384C219.407 130.517 219.77 132.885 219.77 135.488C219.77 138.133 219.407 140.523 218.682 142.656C217.956 144.747 216.932 146.56 215.61 148.096C214.287 149.589 212.708 150.741 210.874 151.552C209.082 152.363 207.076 152.768 204.858 152.768ZM204.858 148.224C207.631 148.224 209.892 147.371 211.642 145.664C213.391 143.957 214.266 141.355 214.266 137.856V133.12C214.266 129.621 213.391 127.019 211.642 125.312C209.892 123.605 207.631 122.752 204.858 122.752C202.084 122.752 199.823 123.605 198.074 125.312C196.324 127.019 195.45 129.621 195.45 133.12V137.856C195.45 141.355 196.324 143.957 198.074 145.664C199.823 147.371 202.084 148.224 204.858 148.224ZM235.486 152C233.694 152 232.329 151.509 231.39 150.528C230.494 149.504 230.046 148.181 230.046 146.56V123.456H224.606V118.976H227.678C228.787 118.976 229.534 118.763 229.918 118.336C230.345 117.867 230.558 117.077 230.558 115.968V109.824H235.166V118.976H242.398V123.456H235.166V147.52H241.886V152H235.486ZM267.545 123.456H262.169V118.976H267.545V112.32C267.545 110.016 268.142 108.16 269.337 106.752C270.531 105.344 272.345 104.64 274.777 104.64H279.769V109.12H272.665V118.976H279.769V123.456H272.665V152H267.545V123.456ZM298.733 152.768C296.514 152.768 294.487 152.363 292.653 151.552C290.818 150.741 289.239 149.589 287.917 148.096C286.637 146.56 285.634 144.747 284.909 142.656C284.183 140.523 283.821 138.133 283.821 135.488C283.821 132.885 284.183 130.517 284.909 128.384C285.634 126.251 286.637 124.437 287.917 122.944C289.239 121.408 290.818 120.235 292.653 119.424C294.487 118.613 296.514 118.208 298.733 118.208C300.951 118.208 302.957 118.613 304.749 119.424C306.583 120.235 308.162 121.408 309.485 122.944C310.807 124.437 311.831 126.251 312.557 128.384C313.282 130.517 313.645 132.885 313.645 135.488C313.645 138.133 313.282 140.523 312.557 142.656C311.831 144.747 310.807 146.56 309.485 148.096C308.162 149.589 306.583 150.741 304.749 151.552C302.957 152.363 300.951 152.768 298.733 152.768ZM298.733 148.224C301.506 148.224 303.767 147.371 305.517 145.664C307.266 143.957 308.141 141.355 308.141 137.856V133.12C308.141 129.621 307.266 127.019 305.517 125.312C303.767 123.605 301.506 122.752 298.733 122.752C295.959 122.752 293.698 123.605 291.949 125.312C290.199 127.019 289.325 129.621 289.325 133.12V137.856C289.325 141.355 290.199 143.957 291.949 145.664C293.698 147.371 295.959 148.224 298.733 148.224ZM342.417 146.624H342.161C341.82 147.392 341.393 148.16 340.881 148.928C340.412 149.653 339.814 150.315 339.089 150.912C338.364 151.467 337.489 151.915 336.465 152.256C335.441 152.597 334.246 152.768 332.881 152.768C329.468 152.768 326.758 151.68 324.753 149.504C322.748 147.285 321.745 144.171 321.745 140.16V118.976H326.865V139.264C326.865 145.195 329.382 148.16 334.417 148.16C335.441 148.16 336.422 148.032 337.361 147.776C338.342 147.52 339.196 147.136 339.921 146.624C340.689 146.112 341.286 145.472 341.713 144.704C342.182 143.893 342.417 142.933 342.417 141.824V118.976H347.537V152H342.417V146.624ZM358.44 152V118.976H363.56V124.352H363.816C364.627 122.475 365.757 120.981 367.208 119.872C368.701 118.763 370.685 118.208 373.16 118.208C376.573 118.208 379.261 119.317 381.224 121.536C383.229 123.712 384.232 126.805 384.232 130.816V152H379.112V131.712C379.112 125.781 376.616 122.816 371.624 122.816C370.6 122.816 369.597 122.944 368.616 123.2C367.677 123.456 366.824 123.84 366.056 124.352C365.288 124.864 364.669 125.525 364.2 126.336C363.773 127.104 363.56 128.021 363.56 129.088V152H358.44ZM415.935 146.624H415.679C413.674 150.72 410.452 152.768 406.015 152.768C403.967 152.768 402.111 152.363 400.447 151.552C398.783 150.741 397.354 149.589 396.159 148.096C395.007 146.603 394.111 144.789 393.471 142.656C392.874 140.523 392.575 138.133 392.575 135.488C392.575 132.843 392.874 130.453 393.471 128.32C394.111 126.187 395.007 124.373 396.159 122.88C397.354 121.387 398.783 120.235 400.447 119.424C402.111 118.613 403.967 118.208 406.015 118.208C408.319 118.208 410.282 118.72 411.903 119.744C413.567 120.725 414.826 122.261 415.679 124.352H415.935V104.64H421.055V152H415.935V146.624ZM407.423 148.16C408.575 148.16 409.663 148.011 410.687 147.712C411.754 147.413 412.671 146.987 413.439 146.432C414.207 145.835 414.804 145.131 415.231 144.32C415.7 143.467 415.935 142.507 415.935 141.44V129.152C415.935 128.256 415.7 127.424 415.231 126.656C414.804 125.845 414.207 125.163 413.439 124.608C412.671 124.053 411.754 123.627 410.687 123.328C409.663 122.987 408.575 122.816 407.423 122.816C404.522 122.816 402.239 123.733 400.575 125.568C398.911 127.36 398.079 129.728 398.079 132.672V138.304C398.079 141.248 398.911 143.637 400.575 145.472C402.239 147.264 404.522 148.16 407.423 148.16Z" fill="white"/>
</svg>
