<svg width="551" height="92" viewBox="0 0 551 92" fill="none" xmlns="http://www.w3.org/2000/svg">
<path d="M23.9784 73.152C18.5384 73.152 13.8984 72.128 10.0584 70.08C6.21838 67.968 2.95438 65.088 0.266375 61.44L6.21838 56.448C8.58638 59.584 11.2104 61.984 14.0904 63.648C16.9704 65.248 20.3624 66.048 24.2664 66.048C29.0664 66.048 32.7144 64.896 35.2104 62.592C37.7704 60.288 39.0504 57.216 39.0504 53.376C39.0504 50.176 38.0904 47.712 36.1704 45.984C34.2504 44.256 31.0824 42.88 26.6664 41.856L21.1944 40.608C15.0504 39.2 10.3464 37.088 7.08238 34.272C3.88238 31.392 2.28238 27.36 2.28238 22.176C2.28238 19.232 2.82638 16.608 3.91438 14.304C5.00238 12 6.50638 10.08 8.42638 8.544C10.4104 7.008 12.7464 5.856 15.4344 5.088C18.1864 4.256 21.1944 3.84 24.4584 3.84C29.5144 3.84 33.8344 4.768 37.4184 6.62399C41.0664 8.48 44.1384 11.2 46.6344 14.784L40.5864 19.2C38.7304 16.64 36.4904 14.624 33.8664 13.152C31.2424 11.68 27.9784 10.944 24.0744 10.944C19.7864 10.944 16.3944 11.872 13.8984 13.728C11.4664 15.52 10.2504 18.24 10.2504 21.888C10.2504 25.088 11.2744 27.52 13.3224 29.184C15.4344 30.784 18.6024 32.064 22.8264 33.024L28.2984 34.272C34.8904 35.744 39.6584 37.984 42.6024 40.992C45.5464 44 47.0184 48 47.0184 52.992C47.0184 56.064 46.4744 58.848 45.3864 61.344C44.3624 63.84 42.8584 65.952 40.8744 67.68C38.8904 69.408 36.4584 70.752 33.5784 71.712C30.7624 72.672 27.5624 73.152 23.9784 73.152ZM71.1196 72C68.4316 72 66.3836 71.264 64.9756 69.792C63.6316 68.256 62.9596 66.272 62.9596 63.84V29.184H54.7996V22.464H59.4076C61.0716 22.464 62.1916 22.144 62.7676 21.504C63.4076 20.8 63.7276 19.616 63.7276 17.952V8.736H70.6396V22.464H81.4876V29.184H70.6396V65.28H80.7196V72H71.1196ZM112.177 73.152C108.849 73.152 105.809 72.544 103.057 71.328C100.305 70.112 97.9369 68.384 95.9529 66.144C94.0329 63.84 92.5289 61.12 91.4409 57.984C90.3529 54.784 89.8089 51.2 89.8089 47.232C89.8089 43.328 90.3529 39.776 91.4409 36.576C92.5289 33.376 94.0329 30.656 95.9529 28.416C97.9369 26.112 100.305 24.352 103.057 23.136C105.809 21.92 108.849 21.312 112.177 21.312C115.505 21.312 118.513 21.92 121.201 23.136C123.953 24.352 126.321 26.112 128.305 28.416C130.289 30.656 131.825 33.376 132.913 36.576C134.001 39.776 134.545 43.328 134.545 47.232C134.545 51.2 134.001 54.784 132.913 57.984C131.825 61.12 130.289 63.84 128.305 66.144C126.321 68.384 123.953 70.112 121.201 71.328C118.513 72.544 115.505 73.152 112.177 73.152ZM112.177 66.336C116.337 66.336 119.729 65.056 122.353 62.496C124.977 59.936 126.289 56.032 126.289 50.784V43.68C126.289 38.432 124.977 34.528 122.353 31.968C119.729 29.408 116.337 28.128 112.177 28.128C108.017 28.128 104.625 29.408 102.001 31.968C99.3769 34.528 98.0649 38.432 98.0649 43.68V50.784C98.0649 56.032 99.3769 59.936 102.001 62.496C104.625 65.056 108.017 66.336 112.177 66.336ZM165.608 73.152C162.152 73.152 159.048 72.544 156.296 71.328C153.544 70.112 151.208 68.384 149.288 66.144C147.432 63.904 145.992 61.184 144.968 57.984C144.008 54.784 143.528 51.2 143.528 47.232C143.528 43.264 144.008 39.68 144.968 36.48C145.992 33.28 147.432 30.56 149.288 28.32C151.208 26.08 153.544 24.352 156.296 23.136C159.048 21.92 162.152 21.312 165.608 21.312C170.536 21.312 174.472 22.4 177.416 24.576C180.424 26.688 182.664 29.472 184.136 32.928L177.704 36.192C176.808 33.632 175.336 31.648 173.288 30.24C171.24 28.832 168.68 28.128 165.608 28.128C163.304 28.128 161.288 28.512 159.56 29.28C157.832 29.984 156.392 31.008 155.24 32.352C154.088 33.632 153.224 35.2 152.648 37.056C152.072 38.848 151.784 40.832 151.784 43.008V51.456C151.784 55.808 152.936 59.392 155.24 62.208C157.608 64.96 161.064 66.336 165.608 66.336C171.816 66.336 176.296 63.456 179.048 57.696L184.616 61.44C183.016 65.024 180.616 67.872 177.416 69.984C174.28 72.096 170.344 73.152 165.608 73.152ZM195.457 0.959999H203.137V45.984H203.521L211.105 37.536L225.121 22.464H234.433L216.097 42.048L236.257 72H226.945L210.529 46.752L203.137 54.336V72H195.457V0.959999Z" fill="black"/>
<path d="M271.906 73.152C267.554 73.152 263.618 72.416 260.098 70.944C256.642 69.408 253.666 67.2 251.17 64.32C248.738 61.376 246.85 57.76 245.506 53.472C244.162 49.12 243.49 44.128 243.49 38.496C243.49 32.864 244.162 27.904 245.506 23.616C246.85 19.328 248.738 15.712 251.17 12.768C253.666 9.824 256.642 7.616 260.098 6.144C263.618 4.608 267.554 3.84 271.906 3.84C276.194 3.84 280.098 4.608 283.618 6.144C287.138 7.616 290.114 9.824 292.546 12.768C295.042 15.712 296.962 19.328 298.306 23.616C299.65 27.904 300.322 32.864 300.322 38.496C300.322 44.128 299.65 49.12 298.306 53.472C296.962 57.76 295.042 61.376 292.546 64.32C290.114 67.2 287.138 69.408 283.618 70.944C280.098 72.416 276.194 73.152 271.906 73.152ZM271.906 65.952C274.786 65.952 277.442 65.44 279.874 64.416C282.306 63.392 284.386 61.92 286.114 60C287.906 58.08 289.282 55.776 290.242 53.088C291.202 50.4 291.682 47.392 291.682 44.064V32.928C291.682 29.6 291.202 26.592 290.242 23.904C289.282 21.216 287.906 18.912 286.114 16.992C284.386 15.072 282.306 13.6 279.874 12.576C277.442 11.552 274.786 11.04 271.906 11.04C269.026 11.04 266.37 11.552 263.938 12.576C261.506 13.6 259.394 15.072 257.602 16.992C255.874 18.912 254.53 21.216 253.57 23.904C252.61 26.592 252.13 29.6 252.13 32.928V44.064C252.13 47.392 252.61 50.4 253.57 53.088C254.53 55.776 255.874 58.08 257.602 60C259.394 61.92 261.506 63.392 263.938 64.416C266.37 65.44 269.026 65.952 271.906 65.952ZM314.051 22.464H321.731V30.528H322.115C323.395 27.392 325.251 25.088 327.683 23.616C330.179 22.08 333.155 21.312 336.611 21.312C339.683 21.312 342.467 21.92 344.963 23.136C347.459 24.352 349.571 26.08 351.299 28.32C353.091 30.56 354.435 33.28 355.331 36.48C356.291 39.68 356.771 43.264 356.771 47.232C356.771 51.2 356.291 54.784 355.331 57.984C354.435 61.184 353.091 63.904 351.299 66.144C349.571 68.384 347.459 70.112 344.963 71.328C342.467 72.544 339.683 73.152 336.611 73.152C329.891 73.152 325.059 70.08 322.115 63.936H321.731V91.2H314.051V22.464ZM334.499 66.24C338.851 66.24 342.275 64.896 344.771 62.208C347.267 59.456 348.515 55.872 348.515 51.456V43.008C348.515 38.592 347.267 35.04 344.771 32.352C342.275 29.6 338.851 28.224 334.499 28.224C332.771 28.224 331.107 28.48 329.507 28.992C327.971 29.44 326.627 30.08 325.475 30.912C324.323 31.744 323.395 32.768 322.691 33.984C322.051 35.136 321.731 36.384 321.731 37.728V56.16C321.731 57.76 322.051 59.2 322.691 60.48C323.395 61.696 324.323 62.752 325.475 63.648C326.627 64.48 327.971 65.12 329.507 65.568C331.107 66.016 332.771 66.24 334.499 66.24ZM380.12 72C377.432 72 375.384 71.264 373.976 69.792C372.632 68.256 371.96 66.272 371.96 63.84V29.184H363.8V22.464H368.408C370.072 22.464 371.192 22.144 371.768 21.504C372.408 20.8 372.728 19.616 372.728 17.952V8.736H379.64V22.464H390.488V29.184H379.64V65.28H389.72V72H380.12ZM406.672 10.848C405.008 10.848 403.792 10.464 403.024 9.696C402.32 8.86399 401.968 7.80799 401.968 6.528V5.27999C401.968 4 402.32 2.976 403.024 2.20799C403.792 1.376 405.008 0.959999 406.672 0.959999C408.336 0.959999 409.52 1.376 410.224 2.20799C410.992 2.976 411.376 4 411.376 5.27999V6.528C411.376 7.80799 410.992 8.86399 410.224 9.696C409.52 10.464 408.336 10.848 406.672 10.848ZM402.832 22.464H410.512V72H402.832V22.464ZM426.832 72V22.464H434.512V30.528H434.896C435.472 29.248 436.112 28.064 436.816 26.976C437.584 25.824 438.48 24.832 439.504 24C440.592 23.168 441.84 22.528 443.248 22.08C444.656 21.568 446.32 21.312 448.24 21.312C451.504 21.312 454.512 22.112 457.264 23.712C460.016 25.248 462.064 27.808 463.408 31.392H463.6C464.496 28.704 466.16 26.368 468.592 24.384C471.088 22.336 474.448 21.312 478.672 21.312C483.728 21.312 487.664 22.976 490.48 26.304C493.36 29.568 494.8 34.208 494.8 40.224V72H487.12V41.568C487.12 37.152 486.256 33.824 484.528 31.584C482.8 29.344 480.048 28.224 476.272 28.224C474.736 28.224 473.264 28.416 471.856 28.8C470.512 29.184 469.296 29.76 468.208 30.528C467.12 31.296 466.256 32.288 465.616 33.504C464.976 34.656 464.656 36.032 464.656 37.632V72H456.976V41.568C456.976 37.152 456.112 33.824 454.384 31.584C452.656 29.344 449.968 28.224 446.32 28.224C444.784 28.224 443.312 28.416 441.904 28.8C440.496 29.184 439.248 29.76 438.16 30.528C437.072 31.296 436.176 32.288 435.472 33.504C434.832 34.656 434.512 36.032 434.512 37.632V72H426.832ZM546.644 72C543.764 72 541.684 71.232 540.404 69.696C539.188 68.16 538.42 66.24 538.1 63.936H537.62C536.532 67.008 534.74 69.312 532.244 70.848C529.748 72.384 526.772 73.152 523.316 73.152C518.068 73.152 513.972 71.808 511.028 69.12C508.148 66.432 506.708 62.784 506.708 58.176C506.708 53.504 508.404 49.92 511.796 47.424C515.252 44.928 520.596 43.68 527.828 43.68H537.62V38.784C537.62 35.264 536.66 32.576 534.74 30.72C532.82 28.864 529.876 27.936 525.908 27.936C522.9 27.936 520.372 28.608 518.324 29.952C516.34 31.296 514.676 33.088 513.332 35.328L508.724 31.008C510.068 28.32 512.212 26.048 515.156 24.192C518.1 22.272 521.812 21.312 526.292 21.312C532.308 21.312 536.98 22.784 540.308 25.728C543.636 28.672 545.3 32.768 545.3 38.016V65.28H550.964V72H546.644ZM524.564 66.624C526.484 66.624 528.244 66.4 529.844 65.952C531.444 65.504 532.82 64.864 533.972 64.032C535.124 63.2 536.02 62.24 536.66 61.152C537.3 60.064 537.62 58.88 537.62 57.6V49.44H527.444C523.028 49.44 519.796 50.08 517.748 51.36C515.764 52.64 514.772 54.496 514.772 56.928V58.944C514.772 61.376 515.636 63.264 517.364 64.608C519.156 65.952 521.556 66.624 524.564 66.624Z" fill="#2ECC71"/>
</svg>
