<svg width="368" height="61" viewBox="0 0 368 61" fill="none" xmlns="http://www.w3.org/2000/svg">
<path d="M16.1523 48.768C12.5256 48.768 9.43225 48.0853 6.87225 46.72C4.31225 45.312 2.13625 43.392 0.34425 40.96L4.31225 37.632C5.89092 39.7227 7.64025 41.3227 9.56025 42.432C11.4803 43.4987 13.7416 44.032 16.3443 44.032C19.5443 44.032 21.9763 43.264 23.6403 41.728C25.3469 40.192 26.2003 38.144 26.2003 35.584C26.2003 33.4507 25.5603 31.808 24.2803 30.656C23.0003 29.504 20.8883 28.5867 17.9443 27.904L14.2963 27.072C10.2003 26.1333 7.06425 24.7253 4.88825 22.848C2.75492 20.928 1.68825 18.24 1.68825 14.784C1.68825 12.8213 2.05092 11.072 2.77625 9.536C3.50158 8 4.50425 6.72 5.78425 5.696C7.10692 4.672 8.66425 3.904 10.4563 3.392C12.2909 2.83733 14.2963 2.56 16.4722 2.56C19.8429 2.56 22.7229 3.17866 25.1123 4.416C27.5443 5.65333 29.5923 7.46667 31.2563 9.856L27.2243 12.8C25.9869 11.0933 24.4936 9.74933 22.7443 8.768C20.9949 7.78666 18.8189 7.296 16.2163 7.296C13.3576 7.296 11.0963 7.91466 9.43225 9.152C7.81092 10.3467 7.00025 12.16 7.00025 14.592C7.00025 16.7253 7.68292 18.3467 9.04825 19.456C10.4563 20.5227 12.5683 21.376 15.3843 22.016L19.0323 22.848C23.4269 23.8293 26.6056 25.3227 28.5683 27.328C30.5309 29.3333 31.5123 32 31.5123 35.328C31.5123 37.376 31.1496 39.232 30.4243 40.896C29.7416 42.56 28.7389 43.968 27.4163 45.12C26.0936 46.272 24.4723 47.168 22.5523 47.808C20.6749 48.448 18.5416 48.768 16.1523 48.768ZM47.5798 48C45.7878 48 44.4224 47.5093 43.4838 46.528C42.5878 45.504 42.1398 44.1813 42.1398 42.56V19.456H36.6998V14.976H39.7718C40.8811 14.976 41.6278 14.7627 42.0118 14.336C42.4384 13.8667 42.6518 13.0773 42.6518 11.968V5.824H47.2598V14.976H54.4918V19.456H47.2598V43.52H53.9798V48H47.5798ZM74.9513 48.768C72.7326 48.768 70.7059 48.3627 68.8713 47.552C67.0366 46.7413 65.4579 45.5893 64.1353 44.096C62.8553 42.56 61.8526 40.7467 61.1273 38.656C60.4019 36.5227 60.0393 34.1333 60.0393 31.488C60.0393 28.8853 60.4019 26.5173 61.1273 24.384C61.8526 22.2507 62.8553 20.4373 64.1353 18.944C65.4579 17.408 67.0366 16.2347 68.8713 15.424C70.7059 14.6133 72.7326 14.208 74.9513 14.208C77.1699 14.208 79.1753 14.6133 80.9673 15.424C82.8019 16.2347 84.3806 17.408 85.7033 18.944C87.0259 20.4373 88.0499 22.2507 88.7753 24.384C89.5006 26.5173 89.8633 28.8853 89.8633 31.488C89.8633 34.1333 89.5006 36.5227 88.7753 38.656C88.0499 40.7467 87.0259 42.56 85.7033 44.096C84.3806 45.5893 82.8019 46.7413 80.9673 47.552C79.1753 48.3627 77.1699 48.768 74.9513 48.768ZM74.9513 44.224C77.7246 44.224 79.9859 43.3707 81.7353 41.664C83.4846 39.9573 84.3593 37.3547 84.3593 33.856V29.12C84.3593 25.6213 83.4846 23.0187 81.7353 21.312C79.9859 19.6053 77.7246 18.752 74.9513 18.752C72.1779 18.752 69.9166 19.6053 68.1673 21.312C66.4179 23.0187 65.5433 25.6213 65.5433 29.12V33.856C65.5433 37.3547 66.4179 39.9573 68.1673 41.664C69.9166 43.3707 72.1779 44.224 74.9513 44.224ZM110.572 48.768C108.268 48.768 106.198 48.3627 104.364 47.552C102.529 46.7413 100.972 45.5893 99.6918 44.096C98.4544 42.6027 97.4944 40.7893 96.8118 38.656C96.1718 36.5227 95.8518 34.1333 95.8518 31.488C95.8518 28.8427 96.1718 26.4533 96.8118 24.32C97.4944 22.1867 98.4544 20.3733 99.6918 18.88C100.972 17.3867 102.529 16.2347 104.364 15.424C106.198 14.6133 108.268 14.208 110.572 14.208C113.857 14.208 116.481 14.9333 118.444 16.384C120.449 17.792 121.942 19.648 122.924 21.952L118.636 24.128C118.038 22.4213 117.057 21.0987 115.692 20.16C114.326 19.2213 112.62 18.752 110.572 18.752C109.036 18.752 107.692 19.008 106.54 19.52C105.388 19.9893 104.428 20.672 103.66 21.568C102.892 22.4213 102.316 23.4667 101.932 24.704C101.548 25.8987 101.356 27.2213 101.356 28.672V34.304C101.356 37.2053 102.124 39.5947 103.66 41.472C105.238 43.3067 107.542 44.224 110.572 44.224C114.71 44.224 117.697 42.304 119.532 38.464L123.244 40.96C122.177 43.3493 120.577 45.248 118.444 46.656C116.353 48.064 113.729 48.768 110.572 48.768ZM130.471 0.639999H135.591V30.656H135.847L140.903 25.024L150.247 14.976H156.455L144.231 28.032L157.671 48H151.463L140.519 31.168L135.591 36.224V48H130.471V0.639999Z" fill="white"/>
<path d="M181.437 48.768C178.536 48.768 175.912 48.2773 173.565 47.296C171.261 46.272 169.277 44.8 167.613 42.88C165.992 40.9173 164.733 38.5067 163.837 35.648C162.941 32.7467 162.493 29.4187 162.493 25.664C162.493 21.9093 162.941 18.6027 163.837 15.744C164.733 12.8853 165.992 10.4747 167.613 8.512C169.277 6.54933 171.261 5.07733 173.565 4.096C175.912 3.072 178.536 2.56 181.437 2.56C184.296 2.56 186.899 3.072 189.245 4.096C191.592 5.07733 193.576 6.54933 195.197 8.512C196.861 10.4747 198.141 12.8853 199.037 15.744C199.933 18.6027 200.381 21.9093 200.381 25.664C200.381 29.4187 199.933 32.7467 199.037 35.648C198.141 38.5067 196.861 40.9173 195.197 42.88C193.576 44.8 191.592 46.272 189.245 47.296C186.899 48.2773 184.296 48.768 181.437 48.768ZM181.437 43.968C183.357 43.968 185.128 43.6267 186.749 42.944C188.371 42.2613 189.757 41.28 190.909 40C192.104 38.72 193.021 37.184 193.661 35.392C194.301 33.6 194.621 31.5947 194.621 29.376V21.952C194.621 19.7333 194.301 17.728 193.661 15.936C193.021 14.144 192.104 12.608 190.909 11.328C189.757 10.048 188.371 9.06666 186.749 8.384C185.128 7.70133 183.357 7.36 181.437 7.36C179.517 7.36 177.747 7.70133 176.125 8.384C174.504 9.06666 173.096 10.048 171.901 11.328C170.749 12.608 169.853 14.144 169.213 15.936C168.573 17.728 168.253 19.7333 168.253 21.952V29.376C168.253 31.5947 168.573 33.6 169.213 35.392C169.853 37.184 170.749 38.72 171.901 40C173.096 41.28 174.504 42.2613 176.125 42.944C177.747 43.6267 179.517 43.968 181.437 43.968ZM209.534 14.976H214.654V20.352H214.91C215.763 18.2613 217 16.7253 218.622 15.744C220.286 14.72 222.27 14.208 224.574 14.208C226.622 14.208 228.478 14.6133 230.142 15.424C231.806 16.2347 233.214 17.3867 234.366 18.88C235.56 20.3733 236.456 22.1867 237.054 24.32C237.694 26.4533 238.014 28.8427 238.014 31.488C238.014 34.1333 237.694 36.5227 237.054 38.656C236.456 40.7893 235.56 42.6027 234.366 44.096C233.214 45.5893 231.806 46.7413 230.142 47.552C228.478 48.3627 226.622 48.768 224.574 48.768C220.094 48.768 216.872 46.72 214.91 42.624H214.654V60.8H209.534V14.976ZM223.166 44.16C226.067 44.16 228.35 43.264 230.014 41.472C231.678 39.6373 232.51 37.248 232.51 34.304V28.672C232.51 25.728 231.678 23.36 230.014 21.568C228.35 19.7333 226.067 18.816 223.166 18.816C222.014 18.816 220.904 18.9867 219.838 19.328C218.814 19.6267 217.918 20.0533 217.15 20.608C216.382 21.1627 215.763 21.8453 215.294 22.656C214.867 23.424 214.654 24.256 214.654 25.152V37.44C214.654 38.5067 214.867 39.4667 215.294 40.32C215.763 41.1307 216.382 41.8347 217.15 42.432C217.918 42.9867 218.814 43.4133 219.838 43.712C220.904 44.0107 222.014 44.16 223.166 44.16ZM253.58 48C251.788 48 250.422 47.5093 249.484 46.528C248.588 45.504 248.14 44.1813 248.14 42.56V19.456H242.7V14.976H245.772C246.881 14.976 247.628 14.7627 248.012 14.336C248.438 13.8667 248.652 13.0773 248.652 11.968V5.824H253.26V14.976H260.492V19.456H253.26V43.52H259.98V48H253.58ZM271.281 7.232C270.172 7.232 269.361 6.976 268.849 6.464C268.38 5.90933 268.145 5.20533 268.145 4.352V3.52C268.145 2.66666 268.38 1.984 268.849 1.472C269.361 0.917332 270.172 0.639999 271.281 0.639999C272.391 0.639999 273.18 0.917332 273.649 1.472C274.161 1.984 274.417 2.66666 274.417 3.52V4.352C274.417 5.20533 274.161 5.90933 273.649 6.464C273.18 6.976 272.391 7.232 271.281 7.232ZM268.721 14.976H273.841V48H268.721V14.976ZM284.721 48V14.976H289.841V20.352H290.097C290.481 19.4987 290.908 18.7093 291.377 17.984C291.889 17.216 292.487 16.5547 293.169 16C293.895 15.4453 294.727 15.0187 295.665 14.72C296.604 14.3787 297.713 14.208 298.993 14.208C301.169 14.208 303.175 14.7413 305.009 15.808C306.844 16.832 308.209 18.5387 309.105 20.928H309.233C309.831 19.136 310.94 17.5787 312.561 16.256C314.225 14.8907 316.465 14.208 319.281 14.208C322.652 14.208 325.276 15.3173 327.153 17.536C329.073 19.712 330.033 22.8053 330.033 26.816V48H324.913V27.712C324.913 24.768 324.337 22.5493 323.185 21.056C322.033 19.5627 320.199 18.816 317.681 18.816C316.657 18.816 315.676 18.944 314.737 19.2C313.841 19.456 313.031 19.84 312.305 20.352C311.58 20.864 311.004 21.5253 310.577 22.336C310.151 23.104 309.937 24.0213 309.937 25.088V48H304.817V27.712C304.817 24.768 304.241 22.5493 303.089 21.056C301.937 19.5627 300.145 18.816 297.713 18.816C296.689 18.816 295.708 18.944 294.769 19.2C293.831 19.456 292.999 19.84 292.273 20.352C291.548 20.864 290.951 21.5253 290.481 22.336C290.055 23.104 289.841 24.0213 289.841 25.088V48H284.721ZM364.596 48C362.676 48 361.29 47.488 360.436 46.464C359.626 45.44 359.114 44.16 358.9 42.624H358.58C357.855 44.672 356.66 46.208 354.996 47.232C353.332 48.256 351.348 48.768 349.044 48.768C345.546 48.768 342.815 47.872 340.852 46.08C338.932 44.288 337.972 41.856 337.972 38.784C337.972 35.6693 339.103 33.28 341.364 31.616C343.668 29.952 347.231 29.12 352.052 29.12H358.58V25.856C358.58 23.5093 357.94 21.7173 356.66 20.48C355.38 19.2427 353.418 18.624 350.772 18.624C348.767 18.624 347.082 19.072 345.716 19.968C344.394 20.864 343.284 22.0587 342.388 23.552L339.316 20.672C340.212 18.88 341.642 17.3653 343.604 16.128C345.567 14.848 348.042 14.208 351.028 14.208C355.039 14.208 358.154 15.1893 360.372 17.152C362.591 19.1147 363.7 21.8453 363.7 25.344V43.52H367.476V48H364.596ZM349.876 44.416C351.156 44.416 352.33 44.2667 353.396 43.968C354.463 43.6693 355.38 43.2427 356.148 42.688C356.916 42.1333 357.514 41.4933 357.94 40.768C358.367 40.0427 358.58 39.2533 358.58 38.4V32.96H351.796C348.852 32.96 346.698 33.3867 345.332 34.24C344.01 35.0933 343.348 36.3307 343.348 37.952V39.296C343.348 40.9173 343.924 42.176 345.076 43.072C346.271 43.968 347.871 44.416 349.876 44.416Z" fill="#2ECC71"/>
</svg>
